<svg role="img" aria-label="[title + description]" id="Layer_1" xmlns="http://www.w3.org/2000/svg" viewBox="0 0 500 500">
    <title>Radiant Wing Solutions</title>
    <desc>Logo</desc>
    <g transform="scale(6.935 6.935)"
       fill="currentColor">
        <path d="M45.14,44.82c3.08-.03,5.45-.05,5.49-.06C80.54,41.78,77.5,2.87,51.88,.03,51.84,.03,0,0,0,0,0,0,9.47,9.37,16.16,15.99c8.17,.51,36.26,2.1,42.95,.16,0,0-3.11,10.85-10.11,11.51S12.66,21.22,12.66,21.22c0,0,30.53,7.62,35.47,8.66,0,0-7.84,7.79-12.46,6.75-4.63-1.04-19.3-8.1-19.3-8.1,0,0,17.23,9.4,19.3,9.95,0,0-3.21,4.37-8.49,3.75-.5-.06-1.05-.17-1.6-.31-3.8,4.5-5.4,10.92,3.26,18.29,1.03,.88,11.96,11.79,11.96,11.79h31.22s-23.92-24.34-26.87-27.18Z"/>
    </g>
</svg>